<svg width="252" height="158" viewBox="0 0 252 158" fill="none" xmlns="http://www.w3.org/2000/svg">
<g clip-path="url(#clip0_26_101)">
<path d="M114.51 14.9291C116.922 12.8594 120.09 11.8094 123.918 11.8094C128.31 11.8094 131.85 13.0585 134.448 15.5145C136.698 17.6506 138.204 20.3238 138.93 23.4858H156.204C155.166 16.6731 152.04 11.0974 146.904 6.9035C141.3 2.32346 133.608 0.000244141 124.05 0.000244141C114.846 0.000244141 107.376 2.25708 101.856 6.70437C96.6658 10.8862 93.9958 16.3895 93.7138 23.4858H101.898C106.302 23.4858 110.172 20.9816 112.524 17.2343C113.064 16.3774 113.724 15.605 114.51 14.9291Z" fill="#00B700"/>
<path d="M133.272 93.6951C137.676 93.2365 141.558 92.1443 144.834 90.4366C149.268 88.1254 152.652 85.0238 154.896 81.2222C157.146 77.4085 158.286 73.1845 158.286 68.6587C158.286 62.9322 157.038 58.2676 154.566 54.7919C152.058 51.2618 148.992 48.5826 145.458 46.8205C141.738 44.974 136.836 42.9646 130.878 40.8526C128.046 39.9233 125.502 39.0121 123.33 38.1432H97.2778C99.7558 41.631 102.804 44.3223 106.326 46.1326C109.986 48.0214 114.762 49.9524 120.528 51.8833C125.088 53.416 128.73 54.7858 131.346 55.9686C134.112 57.2177 136.446 58.9073 138.276 60.9891C140.214 63.1977 141.198 66.0036 141.198 69.3285C141.198 73.0517 139.992 76.1473 137.61 78.543C137.598 78.555 137.586 78.5671 137.574 78.5792C134.946 81.1981 133.266 84.6316 133.266 88.3548V93.6951H133.272Z" fill="#00B700"/>
<path d="M45.702 97.7142H49.674V21.048H76.62V3.80188H0V21.048H26.946V78.8509C26.946 89.2661 35.346 97.7142 45.702 97.7142Z" fill="#111228"/>
<path d="M221.082 98.0337H225.054V21.3677H252V4.12769H175.374V21.3738H202.32V79.1765C202.326 89.5917 210.72 98.0337 221.082 98.0337Z" fill="#111228"/>
</g>
<path d="M30.4626 114.202V118.707H23.0462V142.033H17.4639V118.707H10.0474V114.202H30.4626ZM55.0704 130.51C55.0704 131.307 55.0173 132.025 54.9109 132.663H38.7622C38.8951 134.258 39.4534 135.507 40.4369 136.411C41.4204 137.315 42.6299 137.767 44.0654 137.767C46.1388 137.767 47.6141 136.876 48.4913 135.095H54.5122C53.8742 137.222 52.6515 138.976 50.8439 140.359C49.0363 141.714 46.8166 142.392 44.185 142.392C42.0584 142.392 40.1445 141.927 38.4432 140.997C36.7685 140.04 35.4527 138.697 34.4958 136.97C33.5654 135.242 33.1002 133.248 33.1002 130.989C33.1002 128.702 33.5654 126.695 34.4958 124.968C35.4261 123.24 36.7287 121.911 38.4034 120.98C40.078 120.05 42.0053 119.585 44.185 119.585C46.285 119.585 48.159 120.037 49.8072 120.94C51.4818 121.844 52.7711 123.133 53.6749 124.808C54.6053 126.456 55.0704 128.357 55.0704 130.51ZM49.2888 128.915C49.2622 127.48 48.7439 126.337 47.7337 125.486C46.7236 124.609 45.4875 124.17 44.0255 124.17C42.6432 124.17 41.4736 124.595 40.5166 125.446C39.5863 126.27 39.0147 127.426 38.8021 128.915H49.2888ZM57.7096 130.989C57.7096 128.702 58.1748 126.709 59.1051 125.007C60.0355 123.28 61.3248 121.951 62.9729 121.02C64.621 120.063 66.5083 119.585 68.6349 119.585C71.3729 119.585 73.6323 120.276 75.4134 121.658C77.221 123.014 78.4304 124.928 79.0418 127.4H73.021C72.702 126.443 72.157 125.699 71.3861 125.167C70.6418 124.609 69.7115 124.33 68.595 124.33C67.0001 124.33 65.7374 124.914 64.807 126.084C63.8766 127.227 63.4115 128.862 63.4115 130.989C63.4115 133.089 63.8766 134.723 64.807 135.893C65.7374 137.036 67.0001 137.607 68.595 137.607C70.8545 137.607 72.3298 136.597 73.021 134.577H79.0418C78.4304 136.97 77.221 138.87 75.4134 140.279C73.6058 141.688 71.3463 142.392 68.6349 142.392C66.5083 142.392 64.621 141.927 62.9729 140.997C61.3248 140.04 60.0355 138.711 59.1051 137.009C58.1748 135.282 57.7096 133.275 57.7096 130.989ZM95.5719 119.625C97.2466 119.625 98.7352 119.997 100.038 120.741C101.34 121.459 102.35 122.535 103.068 123.971C103.812 125.38 104.185 127.081 104.185 129.075V142.033H98.6022V129.832C98.6022 128.078 98.1636 126.735 97.2864 125.805C96.4092 124.848 95.213 124.37 93.6978 124.37C92.156 124.37 90.9333 124.848 90.0295 125.805C89.1522 126.735 88.7136 128.078 88.7136 129.832V142.033H83.1314V112.527H88.7136V122.695C89.4314 121.738 90.3883 120.994 91.5845 120.462C92.7807 119.904 94.1098 119.625 95.5719 119.625ZM121.734 119.625C124.366 119.625 126.492 120.462 128.114 122.137C129.735 123.785 130.546 126.097 130.546 129.075V142.033H124.964V129.832C124.964 128.078 124.525 126.735 123.648 125.805C122.771 124.848 121.575 124.37 120.059 124.37C118.518 124.37 117.295 124.848 116.391 125.805C115.514 126.735 115.075 128.078 115.075 129.832V142.033H109.493V119.944H115.075V122.695C115.82 121.738 116.763 120.994 117.906 120.462C119.076 119.904 120.352 119.625 121.734 119.625ZM145.663 142.392C143.537 142.392 141.623 141.927 139.922 140.997C138.22 140.04 136.878 138.697 135.894 136.97C134.938 135.242 134.459 133.248 134.459 130.989C134.459 128.729 134.951 126.735 135.934 125.007C136.944 123.28 138.313 121.951 140.041 121.02C141.769 120.063 143.696 119.585 145.823 119.585C147.95 119.585 149.877 120.063 151.605 121.02C153.332 121.951 154.688 123.28 155.672 125.007C156.682 126.735 157.187 128.729 157.187 130.989C157.187 133.248 156.669 135.242 155.632 136.97C154.622 138.697 153.239 140.04 151.485 140.997C149.757 141.927 147.817 142.392 145.663 142.392ZM145.663 137.528C146.674 137.528 147.617 137.289 148.494 136.81C149.398 136.305 150.116 135.561 150.648 134.577C151.179 133.594 151.445 132.397 151.445 130.989C151.445 128.889 150.887 127.28 149.77 126.164C148.681 125.021 147.338 124.449 145.743 124.449C144.148 124.449 142.806 125.021 141.716 126.164C140.653 127.28 140.121 128.889 140.121 130.989C140.121 133.089 140.639 134.71 141.676 135.853C142.739 136.97 144.069 137.528 145.663 137.528ZM166.864 112.527V142.033H161.282V112.527H166.864ZM182.188 142.392C180.062 142.392 178.148 141.927 176.446 140.997C174.745 140.04 173.403 138.697 172.419 136.97C171.462 135.242 170.984 133.248 170.984 130.989C170.984 128.729 171.475 126.735 172.459 125.007C173.469 123.28 174.838 121.951 176.566 121.02C178.294 120.063 180.221 119.585 182.348 119.585C184.474 119.585 186.401 120.063 188.129 121.02C189.857 121.951 191.213 123.28 192.196 125.007C193.207 126.735 193.712 128.729 193.712 130.989C193.712 133.248 193.193 135.242 192.157 136.97C191.146 138.697 189.764 140.04 188.01 140.997C186.282 141.927 184.341 142.392 182.188 142.392ZM182.188 137.528C183.198 137.528 184.142 137.289 185.019 136.81C185.923 136.305 186.641 135.561 187.172 134.577C187.704 133.594 187.97 132.397 187.97 130.989C187.97 128.889 187.412 127.28 186.295 126.164C185.205 125.021 183.863 124.449 182.268 124.449C180.673 124.449 179.331 125.021 178.241 126.164C177.177 127.28 176.646 128.889 176.646 130.989C176.646 133.089 177.164 134.71 178.201 135.853C179.264 136.97 180.593 137.528 182.188 137.528ZM206.459 119.585C208.107 119.585 209.556 119.917 210.805 120.582C212.054 121.22 213.038 122.057 213.756 123.094V119.944H219.378V142.193C219.378 144.24 218.966 146.061 218.142 147.656C217.318 149.277 216.082 150.553 214.434 151.483C212.785 152.44 210.792 152.919 208.453 152.919C205.316 152.919 202.737 152.188 200.717 150.726C198.723 149.264 197.594 147.27 197.328 144.745H202.87C203.163 145.755 203.787 146.552 204.744 147.137C205.728 147.749 206.911 148.054 208.293 148.054C209.915 148.054 211.23 147.563 212.241 146.579C213.251 145.622 213.756 144.16 213.756 142.193V138.764C213.038 139.801 212.041 140.664 210.765 141.356C209.516 142.047 208.08 142.392 206.459 142.392C204.598 142.392 202.897 141.914 201.355 140.957C199.813 140 198.591 138.657 197.687 136.93C196.81 135.175 196.371 133.168 196.371 130.909C196.371 128.676 196.81 126.695 197.687 124.968C198.591 123.24 199.8 121.911 201.315 120.98C202.857 120.05 204.572 119.585 206.459 119.585ZM213.756 130.989C213.756 129.633 213.49 128.476 212.958 127.52C212.427 126.536 211.709 125.792 210.805 125.287C209.901 124.755 208.931 124.489 207.894 124.489C206.858 124.489 205.901 124.742 205.023 125.247C204.146 125.752 203.429 126.496 202.87 127.48C202.339 128.437 202.073 129.58 202.073 130.909C202.073 132.238 202.339 133.407 202.87 134.418C203.429 135.401 204.146 136.159 205.023 136.69C205.927 137.222 206.884 137.488 207.894 137.488C208.931 137.488 209.901 137.235 210.805 136.73C211.709 136.199 212.427 135.454 212.958 134.497C213.49 133.514 213.756 132.344 213.756 130.989ZM245.963 119.944L232.286 152.48H226.345L231.13 141.475L222.278 119.944H228.538L234.24 135.375L240.022 119.944H245.963Z" fill="#111228"/>
<defs>
<clipPath id="clip0_26_101">
<rect width="252" height="98.0336" fill="white" transform="translate(0 0.000244141)"/>
</clipPath>
</defs>
</svg>
