<svg width="80" height="32" viewBox="0 0 80 32" fill="none" xmlns="http://www.w3.org/2000/svg">
<path d="M78.4596 1.64959H69.1304V8.3894L69.1032 8.40018C68.5896 6.14998 68.0759 3.89979 67.5622 1.64959H58.2329V5.33819L48.9358 0.790863L40.836 4.75218C40.4367 3.71777 40.0373 2.68336 39.6379 1.64959H29.0868L21.7677 8.01648V5.1289C21.2541 3.96892 20.7404 2.80957 20.2267 1.64959H0V26.8711C0.513683 28.0311 1.02736 29.1904 1.54105 30.3504H20.9516H21.767H30.2808V24.1116L30.308 24.1218V26.8711C30.8217 28.0311 31.3353 29.1904 31.849 30.3504H41.1783V26.6618L50.4761 31.2091L58.9174 27.0804V28.0139C59.2025 28.7928 59.4882 29.5716 59.7733 30.3504H69.1025V21.4416L69.1297 21.4308V26.8711C69.6434 28.0311 70.1571 29.1904 70.6708 30.3504H80V5.12826C79.4863 3.96892 78.9726 2.80894 78.4596 1.64959Z" fill="url(#paint0_linear_28_589)"/>
<path d="M18.2879 12.4317L13.2138 14.2602L18.2879 16.0886V25.1059H1.94202V3.4151H18.2879V12.4317ZM12.8388 8.06263H7.3904V12.1527L12.8388 10.4175V8.06263ZM7.3904 16.3366V20.4577H12.8388V18.2266L7.3904 16.3366Z" fill="white"/>
<path d="M37.6985 3.41507V25.1059H32.2502V20.0239L26.8018 18.0096V25.1059H21.3534V10.8208L29.8671 3.41507H37.6985ZM32.2502 15.1278V8.34166L26.8018 12.8966L32.2502 15.1278Z" fill="white"/>
<path d="M48.9359 7.87726L45.0195 9.79831L57.1088 15.6857V21.7285L48.9359 25.726L40.7629 21.7285V16.6155L48.9359 20.644L52.8523 18.723L40.7629 12.8356V6.79276L48.9359 2.79593L57.1088 6.79276V11.9058L48.9359 7.87726Z" fill="white"/>
<path d="M76.5201 3.41507V25.1059H71.0717V14.6629L65.6233 16.8008V25.1052H60.1749V3.41507H65.6233V11.6884L71.0717 9.55047V3.41507H76.5201Z" fill="white"/>
<defs>
<linearGradient id="paint0_linear_28_589" x1="-1.45833" y1="19.7995" x2="80.001" y2="20.585" gradientUnits="userSpaceOnUse">
<stop stop-color="#FE8C00"/>
<stop offset="1" stop-color="#F83600"/>
</linearGradient>
</defs>
</svg>
