<svg width="48" height="48" viewBox="0 0 48 48" fill="none" xmlns="http://www.w3.org/2000/svg">
<g clip-path="url(#clip0_1483_23444)">
<g opacity="0.15">
<circle cx="24" cy="24" r="24" fill="#8C54FF"/>
<mask id="mask0_1483_23444" style="mask-type:luminance" maskUnits="userSpaceOnUse" x="0" y="0" width="48" height="48">
<circle cx="24" cy="24" r="24" fill="white"/>
</mask>
<g mask="url(#mask0_1483_23444)">
</g>
</g>
<g clip-path="url(#clip1_1483_23444)">
<path d="M29.5834 20.303V17.5553C29.5834 17.3124 29.4868 17.0794 29.3149 16.9077C29.143 16.7359 28.9098 16.6394 28.6667 16.6394H19.5C19.0138 16.6394 18.5475 16.8324 18.2037 17.1759C17.8598 17.5195 17.6667 17.9854 17.6667 18.4712M17.6667 18.4712C17.6667 18.957 17.8598 19.423 18.2037 19.7665C18.5475 20.11 19.0138 20.303 19.5 20.303H30.5C30.7431 20.303 30.9763 20.3995 31.1482 20.5713C31.3201 20.7431 31.4167 20.976 31.4167 21.2189V23.9666M17.6667 18.4712V29.4621C17.6667 29.9479 17.8598 30.4138 18.2037 30.7574C18.5475 31.1009 19.0138 31.2939 19.5 31.2939H30.5C30.7431 31.2939 30.9763 31.1974 31.1482 31.0256C31.3201 30.8538 31.4167 30.6209 31.4167 30.378V27.6303" stroke="#8C54FF" stroke-width="2" stroke-linecap="round" stroke-linejoin="round"/>
<path d="M32.3333 23.9668V27.6304H28.6666C28.1804 27.6304 27.7141 27.4374 27.3703 27.0939C27.0265 26.7504 26.8333 26.2844 26.8333 25.7986C26.8333 25.3128 27.0265 24.8469 27.3703 24.5033C27.7141 24.1598 28.1804 23.9668 28.6666 23.9668H32.3333Z" stroke="#8C54FF" stroke-width="2" stroke-linecap="round" stroke-linejoin="round"/>
</g>
</g>
<defs>
<clipPath id="clip0_1483_23444">
<rect width="48" height="48" fill="white"/>
</clipPath>
<clipPath id="clip1_1483_23444">
<rect width="22" height="21.9817" fill="white" transform="translate(14 12.9758)"/>
</clipPath>
</defs>
</svg>