<svg width="48" height="48" viewBox="0 0 48 48" fill="none" xmlns="http://www.w3.org/2000/svg">
<g clip-path="url(#clip0_1483_23444)">
<g opacity="0.15">
<circle cx="24" cy="24" r="24" fill="#8C54FF"/>
<mask id="mask0_1483_23444" style="mask-type:luminance" maskUnits="userSpaceOnUse" x="0" y="0" width="48" height="48">
<circle cx="24" cy="24" r="24" fill="white"/>
</mask>
<g mask="url(#mask0_1483_23444)">
</g>
</g>
<path d="M19.7453 22.4953H22.4953V19.7453L19.287 16.537C20.3133 16.0468 21.4664 15.8869 22.5873 16.0792C23.7083 16.2715 24.7421 16.8067 25.5464 17.6109C26.3506 18.4152 26.8857 19.449 27.0781 20.5699C27.2704 21.6909 27.1105 22.844 26.6203 23.8703L32.1203 29.3703C32.485 29.735 32.6899 30.2296 32.6899 30.7453C32.6899 31.261 32.485 31.7556 32.1203 32.1203C31.7556 32.485 31.261 32.6899 30.7453 32.6899C30.2296 32.6899 29.735 32.485 29.3703 32.1203L23.8703 26.6203C22.844 27.1105 21.6909 27.2704 20.5699 27.0781C19.449 26.8857 18.4152 26.3506 17.6109 25.5464C16.8067 24.7421 16.2715 23.7083 16.0792 22.5873C15.8869 21.4664 16.0468 20.3133 16.537 19.287L19.7453 22.4953Z" stroke="#8C54FF" stroke-width="2" stroke-linecap="round" stroke-linejoin="round"/>
</g>
<defs>
<clipPath id="clip0_1483_23444">
<rect width="48" height="48" fill="white"/>
</clipPath>
</defs>
</svg>
